<svg id="Layer_1" data-name="Layer 1" xmlns="http://www.w3.org/2000/svg" viewBox="0 0 44.91 45.74"><defs><style>.cls-1{fill:none;stroke:#8c3a3a;stroke-miterlimit:10;stroke-width:5px;}</style></defs><path class="cls-1" d="M42.41,22.48c0,5.6-4,10.64-7.25,14.41a17.8,17.8,0,0,1-13.67,6.35c-5.41,0-8.95-3.42-12.4-7.44C5.86,32,2.5,28.08,2.5,22.48s.35-12.14,3.58-15.9c3.45-4,10-4.08,15.41-4.08s9.44,2.21,12.89,6.24C37.61,12.5,42.41,16.87,42.41,22.48Z"/><path class="cls-1" d="M36.36,13.13c2.55,4.06,2,9.49,1.48,13.66A14.8,14.8,0,0,1,31,37.66c-3.88,2.43-8,1.54-12.31.1C14.74,36.43,10.54,35,8,31s-5.29-8.87-4.75-13c.58-4.53,5.18-7.63,9.06-10.07s7.79-2.61,12.13-1.16C28.41,8,33.8,9.07,36.36,13.13Z"/></svg>